<?xml version="1.0" encoding="UTF-8"?>
<svg id="_レイヤー_1" data-name="レイヤー 1" xmlns="http://www.w3.org/2000/svg" xmlns:xlink="http://www.w3.org/1999/xlink" viewBox="0 0 292.33 59.31">
  <defs>
    <style>
      .cls-1 {
        stroke: #45489a;
        stroke-linecap: round;
        stroke-linejoin: round;
        stroke-width: 1.32px;
      }

      .cls-1, .cls-2 {
        fill: #45489a;
      }

      .cls-3 {
        fill: #fff;
      }

      .cls-4 {
        fill: url(#_ピーマン_2);
      }

      #footer-wordmark .cls-1 {
        fill: #fff;
        stroke: #fff;
      }

      #footer-wordmark .cls-2 {
        fill: #fff;
      }
    </style>
    <linearGradient id="_ピーマン_2" data-name="ピーマン 2" x1="95.38" y1="29.65" x2="-64.31" y2="29.65" gradientUnits="userSpaceOnUse">
      <stop offset=".02" stop-color="#26953a"/>
      <stop offset=".09" stop-color="#3e9f3b"/>
      <stop offset=".22" stop-color="#7bbb40"/>
      <stop offset=".28" stop-color="#99c843"/>
      <stop offset=".45" stop-color="#8dc44a"/>
      <stop offset=".51" stop-color="#a5ce62"/>
      <stop offset=".62" stop-color="#dbe798"/>
      <stop offset=".64" stop-color="#c1db8a"/>
      <stop offset=".68" stop-color="#98c875"/>
      <stop offset=".72" stop-color="#75b863"/>
      <stop offset=".76" stop-color="#58ab54"/>
      <stop offset=".81" stop-color="#42a148"/>
      <stop offset=".85" stop-color="#329a40"/>
      <stop offset=".91" stop-color="#28963b"/>
      <stop offset=".98" stop-color="#26953a"/>
    </linearGradient>
  </defs>
  <g>
    <path class="cls-4" d="M104.88,13.94c-2.63-7.54-16.43-20.07-36.91-10.46-15.07,7.07-14.7,19.3-16.61,25.68-1.91-6.38-8.89-16.69-19.68-20.45C17.64,3.82,3.24,9.48.61,17.02c-2.63,7.54,3.19,19.1,17.22,23.99,12.23,4.26,27.41,1.67,31.99-3.67l-2.73,19.72c0,1.24,1.71,2.25,3.8,2.25s3.8-1.01,3.8-2.25l-2.11-20.1c4.34,5.66,17.11,9.09,30.17,6.85,16.27-2.8,24.74-22.32,22.12-29.86Z"/>
    <path class="cls-1" d="M22.88,35.85c-1.67,0-2.88-.3-3.7-.91-.93-.69-1.39-1.89-1.39-3.59V12.43c0-.54.36-1.02.88-1.18.36-.11.83-.21,1.44-.31.48-.08.99-.13,1.55-.15-1.12-.16-2.08-.63-2.85-1.42-.95-.97-1.43-2.17-1.43-3.58s.48-2.56,1.43-3.53c.96-.98,2.21-1.47,3.71-1.47s2.75.5,3.71,1.47c.95.97,1.43,2.16,1.43,3.53s-.48,2.61-1.43,3.58c-.83.85-1.87,1.33-3.11,1.45,1.19.1,2.09.4,2.75.91.91.7,1.38,1.91,1.38,3.6v18.92c0,.54-.36,1.02-.88,1.18-.37.11-.85.21-1.47.29-.61.08-1.29.13-2.01.13ZM26.01,34.25h0,0ZM20.24,13.41v17.94c0,1.22.31,1.54.4,1.61.21.16.79.42,2.24.42.61,0,1.18-.03,1.67-.1.08-.01.16-.02.23-.03V15.33c0-.83-.16-1.45-.42-1.65-.21-.16-.78-.44-2.22-.44-.6,0-1.16.04-1.64.12-.09.02-.18.03-.26.05ZM22.51,3.26c-.83,0-1.47.24-1.95.74-.5.51-.73,1.08-.73,1.81s.23,1.35.73,1.86c.48.5,1.12.74,1.95.74s1.47-.24,1.95-.74c.5-.51.73-1.1.73-1.86s-.23-1.3-.73-1.81c-.48-.49-1.12-.74-1.95-.74Z"/>
    <path class="cls-1" d="M40.79,26.6h-10.08c-.43,0-.83-.23-1.05-.6-.24-.4-.44-.87-.63-1.46-.19-.6-.29-1.25-.29-1.93,0-1.35.35-2.38,1.05-3.08.7-.7,1.62-1.05,2.76-1.05h10.04c.45,0,.86.24,1.08.63.19.34.38.78.59,1.35.23.64.35,1.31.35,2.01,0,1.35-.37,2.39-1.09,3.09-.71.69-1.63,1.04-2.72,1.04ZM31.49,24.14h9.3c.59,0,.86-.2,1.01-.34.22-.21.34-.68.34-1.33,0-.41-.07-.79-.2-1.17-.05-.14-.1-.26-.14-.36h-9.25c-.62,0-.88.19-1.02.33-.21.21-.33.69-.33,1.34,0,.43.06.83.17,1.2.04.12.08.24.11.33Z"/>
    <path class="cls-1" d="M65.28,35.85c-1.67,0-2.88-.3-3.7-.91-.93-.69-1.39-1.89-1.39-3.59v-11.19c0-1.02-.38-1.34-.51-1.44-.42-.34-1.02-.51-1.8-.51-.61,0-1.18.08-1.67.22-.29.09-.56.18-.83.29v15.52c0,.54-.36,1.02-.88,1.18-.37.11-.85.21-1.47.29-.61.08-1.29.13-2.01.13-1.66,0-2.88-.29-3.71-.9-.95-.69-1.43-1.9-1.43-3.6v-14.23c0-1.05.24-1.93.72-2.63.42-.61,1-1.18,1.73-1.69,1.08-.78,2.49-1.41,4.17-1.88,1.65-.46,3.49-.69,5.46-.69,3.62,0,6.49.84,8.53,2.48,2.12,1.71,3.2,4.16,3.2,7.26v14.27c0,.55-.37,1.04-.91,1.19-.39.11-.88.2-1.49.28-.61.08-1.29.13-2.01.13ZM57.87,15.76c1.36,0,2.49.36,3.35,1.06,0,0,0,0,0,0,.94.76,1.42,1.89,1.42,3.35v11.19c0,1.22.31,1.54.4,1.61.21.16.79.42,2.24.42.61,0,1.18-.03,1.67-.1.09-.01.19-.03.27-.04v-13.27c0-2.36-.75-4.11-2.28-5.35-1.59-1.29-3.94-1.94-6.98-1.94-1.75,0-3.37.2-4.8.6-1.4.39-2.55.9-3.41,1.52-.5.35-.88.71-1.13,1.08-.19.28-.29.7-.29,1.24v14.23c0,.82.15,1.42.41,1.6.22.16.82.43,2.27.43.61,0,1.18-.03,1.67-.1.08-.01.16-.02.23-.03v-15.3c0-.46.25-.87.65-1.09.59-.31,1.24-.58,1.93-.78.73-.22,1.53-.33,2.38-.33Z"/>
    <path class="cls-1" d="M82.4,36.27c-3.39,0-6.15-.68-8.22-2.02-2.24-1.45-3.37-3.66-3.37-6.58,0-2.48.78-4.42,2.31-5.76,1.47-1.29,3.59-2.06,6.48-2.37l4.92-.52c-.11-.26-.29-.4-.48-.51-.42-.24-1.25-.53-2.84-.53-1.06,0-2.12.13-3.14.38-1.06.26-2.01.57-2.84.91-.38.16-.81.11-1.15-.11-.54-.36-1-.9-1.36-1.59-.35-.68-.53-1.42-.53-2.2,0-1.3.5-3.05,2.88-4.04.01,0,.02,0,.03-.01.97-.37,2.1-.65,3.37-.83,1.24-.18,2.46-.27,3.65-.27,1.69,0,3.25.17,4.65.52,1.45.36,2.72.93,3.77,1.7,1.08.79,1.93,1.81,2.52,3.03.59,1.21.88,2.63.88,4.22v10.4c0,1.1-.31,2.02-.92,2.72-.5.57-1.1,1.07-1.79,1.47-1.06.65-2.36,1.15-3.86,1.48-1.46.32-3.13.49-4.96.49ZM81.21,15.53c1.74,0,3.07.28,4.07.86,1.19.68,1.81,1.8,1.81,3.23v.51c0,.63-.48,1.16-1.1,1.22l-6.12.64c-2.34.25-4.06.84-5.12,1.77-.99.87-1.47,2.15-1.47,3.91,0,2.06.73,3.54,2.25,4.51,1.66,1.08,3.98,1.62,6.88,1.62,1.65,0,3.14-.15,4.43-.43,1.24-.28,2.29-.67,3.12-1.18,0,0,.02-.01.03-.02.46-.27.86-.59,1.18-.96.22-.25.32-.61.32-1.1v-10.4c0-1.22-.21-2.28-.64-3.15-.42-.87-1-1.56-1.76-2.12-.79-.58-1.76-1.01-2.9-1.29-1.2-.3-2.57-.45-4.06-.45-1.07,0-2.18.08-3.3.24-1.08.15-2.03.38-2.83.69-1.18.49-1.34,1.16-1.34,1.76,0,.39.08.74.25,1.07.05.09.1.18.15.26.74-.27,1.56-.51,2.42-.73,1.21-.3,2.46-.45,3.72-.45ZM82.4,31.06c-1.55,0-2.69-.3-3.47-.9-.85-.66-1.3-1.6-1.3-2.72s.53-2.08,1.5-2.65c.75-.44,1.72-.72,2.88-.83l3.79-.32c.35-.03.68.09.94.32.25.23.4.56.4.91v4.24c0,.42-.22.81-.57,1.04-.47.3-1.09.53-1.9.7-.74.15-1.5.23-2.25.23ZM84.67,26.2l-2.44.21c-.79.07-1.41.24-1.85.5-.22.13-.29.26-.29.53,0,.36.1.58.35.78.15.12.64.39,1.96.39.59,0,1.18-.06,1.75-.18.21-.04.38-.09.52-.13v-2.09Z"/>
    <path class="cls-3" d="M18.6,5.8c0-1.04.36-1.93,1.08-2.67.72-.74,1.66-1.1,2.83-1.1s2.11.37,2.83,1.1c.72.74,1.08,1.63,1.08,2.67s-.36,1.98-1.08,2.72c-.72.74-1.67,1.1-2.83,1.1s-2.11-.37-2.83-1.1c-.72-.74-1.08-1.64-1.08-2.72ZM26.01,34.25c-.31.09-.74.18-1.29.25-.55.08-1.17.12-1.84.12-1.38,0-2.37-.22-2.97-.67s-.9-1.31-.9-2.6V12.43c.31-.09.74-.18,1.29-.28s1.17-.14,1.84-.14c1.38,0,2.37.23,2.97.69.6.46.9,1.34.9,2.62v18.92Z"/>
    <path class="cls-3" d="M30.71,25.37c-.18-.31-.35-.71-.51-1.2-.15-.49-.23-1.01-.23-1.57,0-1.01.23-1.75.69-2.21.46-.46,1.09-.69,1.89-.69h10.04c.15.28.32.67.51,1.17s.28,1.04.28,1.59c0,1.01-.24,1.75-.71,2.21-.48.46-1.1.69-1.86.69h-10.08Z"/>
    <path class="cls-3" d="M60.45,17.77c-.64-.52-1.5-.78-2.58-.78-.74,0-1.41.09-2.03.28-.61.18-1.18.41-1.7.69v16.3c-.31.09-.74.18-1.29.25-.55.08-1.17.12-1.84.12-1.38,0-2.38-.22-2.99-.67-.61-.44-.92-1.31-.92-2.6v-14.23c0-.8.17-1.44.51-1.93.34-.49.81-.95,1.43-1.38.98-.71,2.25-1.27,3.8-1.7,1.55-.43,3.26-.64,5.13-.64,3.34,0,5.93.74,7.76,2.21,1.83,1.47,2.74,3.58,2.74,6.31v14.27c-.34.09-.78.18-1.34.25-.55.08-1.17.12-1.84.12-1.38,0-2.37-.22-2.97-.67s-.9-1.31-.9-2.6v-11.19c0-1.07-.32-1.87-.97-2.39Z"/>
    <path class="cls-3" d="M82.13,11.47c1.6,0,3.05.16,4.35.48,1.3.32,2.42.82,3.34,1.5.92.68,1.63,1.53,2.14,2.58.51,1.04.76,2.27.76,3.68v10.4c0,.8-.21,1.44-.62,1.91-.41.48-.91.88-1.5,1.22-.95.58-2.12,1.03-3.5,1.34-1.38.31-2.95.46-4.7.46-3.16,0-5.68-.61-7.55-1.82-1.87-1.21-2.81-3.06-2.81-5.55,0-2.12.63-3.73,1.89-4.83,1.26-1.1,3.19-1.8,5.8-2.07l6.12-.64v-.51c0-.98-.4-1.7-1.2-2.16-.8-.46-1.95-.69-3.45-.69-1.17,0-2.31.14-3.43.41-1.12.28-2.13.6-3.02.97-.37-.25-.68-.62-.94-1.13-.26-.51-.39-1.05-.39-1.63,0-1.35.71-2.32,2.12-2.9.89-.34,1.93-.59,3.11-.76,1.18-.17,2.34-.25,3.48-.25ZM82.4,29.83c.67,0,1.34-.07,2-.21.66-.14,1.16-.31,1.5-.53v-4.24l-3.77.32c-.98.09-1.77.32-2.37.67-.6.35-.9.88-.9,1.59s.28,1.32.83,1.75c.55.43,1.46.64,2.72.64Z"/>
  </g>
  <g id="footer-wordmark">
    <g>
      <path class="cls-1" d="M196.55,26.85c-4.67,3.7-9.56,6.9-14.23,9.42-.68.39-1.35.5-1.97.5-1.8,0-3.09-1.51-3.09-3.14,0-1.12.62-2.35,2.14-3.14,10.18-5.33,20.48-13.96,27.34-22.99.79-1.01,1.8-1.46,2.81-1.46,1.74,0,3.43,1.35,3.43,3.14,0,.62-.23,1.35-.79,2.07-3.32,4.32-7.43,8.58-11.93,12.5,1.52.11,2.93,1.12,2.93,2.92v24.61c0,1.96-1.63,2.92-3.32,2.92s-3.32-.95-3.32-2.92v-24.45Z"/>
      <path class="cls-1" d="M241.22,31.36c1.24,0,1.85,1.57,1.85,3.2s-.62,3.2-1.85,3.2h-25.05c-1.24,0-1.85-1.63-1.85-3.2s.62-3.2,1.85-3.2h25.05Z"/>
      <path class="cls-1" d="M266.37,20.46c.06-.79.06-1.63.06-2.47V7.84c0-1.85,1.69-2.75,3.32-2.75s3.32.9,3.32,2.75v10.65c0,.67-.06,1.29-.06,1.96h15.92c1.8,0,2.7,1.51,2.7,3.03s-.9,3.03-2.7,3.03h-16.26c-1.41,12.5-6.19,20.58-14.4,26.19-.73.5-1.46.73-2.14.73-1.86,0-3.32-1.57-3.32-3.31,0-.95.45-1.96,1.58-2.75,6.75-4.77,10.41-10.77,11.59-20.86h-16.82c-1.8,0-2.7-1.51-2.7-3.03s.9-3.03,2.7-3.03h17.22Z"/>
    </g>
    <g>
      <path class="cls-2" d="M124.59,15.49c-.12.2-.25.4-.37.6-.32.52-.8.72-1.22.72-.67,0-1.3-.52-1.3-1.22,0-.27.07-.55.25-.82,1.54-2.42,2.89-5.98,3.61-9.39.15-.65.72-.95,1.32-.95.72,0,1.44.42,1.44,1.22,0,.12-.02.22-.05.35-.45,2.04-1.17,4.26-2.07,6.28.55.07,1.05.42,1.05,1v13.2c0,.67-.67,1-1.32,1s-1.34-.32-1.34-1v-10.98ZM132.19,26.63c-2.02,0-3.04-.9-3.04-2.64v-15.84c0-1.74,1.02-2.62,3.04-2.62h9.07c1.99,0,3.06.87,3.06,2.62v15.84c-.05,1.97-1.27,2.62-3.06,2.64h-9.07ZM141.03,24.34c.6,0,.8-.25.8-.85v-14.82c0-.6-.2-.85-.8-.85h-8.59c-.6,0-.8.25-.8.85v14.82c0,.6.2.82.8.85h8.59ZM138.17,15.57c1.62,0,2.07.7,2.07,2.02v3.11c0,1.32-.6,2.02-2.19,2.02h-2.64c-1.62,0-2.19-.7-2.19-2.02v-3.11c0-1.32.47-2.02,2.07-2.02h.22v-2.17h-2.42c-.55,0-.82-.52-.82-1.02,0-.52.27-1.02.82-1.02h2.42v-1.99c0-.65.6-.95,1.17-.95s1.17.3,1.17.95v1.99h2.54c.55,0,.82.5.82,1.02s-.27,1.02-.82,1.02h-2.54v2.17h.32ZM137.5,20.72c.37,0,.5-.17.5-.47v-2.27c0-.3-.12-.47-.5-.47h-1.54c-.37,0-.5.17-.5.47v2.27c.02.32.17.47.5.47h1.54Z"/>
      <path class="cls-2" d="M151.32,13.78c-1.92-.05-2.86-.67-2.91-2.66v-3.19c0-1.84.97-2.66,3.01-2.66h4.68c2.04,0,3.01.82,3.01,2.66v3.19c0,1.84-.97,2.66-3.01,2.66h-2.17c-.02.8-.07,1.62-.17,2.42h2.64c2.04,0,2.86.92,2.86,2.39,0,2.22-.27,4.01-.57,5.4-.47,2.14-1.57,2.96-3.36,2.96-.62,0-1.1-.02-1.74-.15-.75-.15-1.07-.72-1.07-1.27,0-.75.55-1.47,1.52-1.3.5.1.75.12,1.15.12.47,0,.72-.2.9-.87.35-1.32.5-2.89.5-4.36,0-.45-.15-.57-.75-.57h-2.47c-.7,3.16-1.99,5.7-4.08,7.8-.4.4-.82.57-1.2.57-.7,0-1.25-.55-1.25-1.22,0-.35.15-.72.5-1.1,2.57-2.64,3.79-5.83,4.03-10.83h-.05ZM155.6,11.48c.62,0,.85-.22.85-.75v-2.39c0-.52-.22-.75-.85-.75h-3.69c-.62,0-.85.22-.85.75v2.39c0,.52.22.75.85.75h3.69ZM161.46,7.32c0-.72.67-1.1,1.34-1.1s1.32.37,1.32,1.1v13.3c0,.72-.67,1.1-1.32,1.1s-1.34-.37-1.34-1.1V7.32ZM168.93,24.01c0,2.07-.82,2.94-3.06,2.94-.62,0-1.27-.05-1.82-.15-.7-.15-1.05-.72-1.05-1.27,0-.72.52-1.42,1.44-1.3.32.05.65.1,1.17.1.32,0,.6-.1.6-.77V5.83c0-.75.67-1.1,1.37-1.1s1.34.35,1.34,1.1v18.18Z"/>
      <path class="cls-2" d="M130,36.76c.67,0,1.02.6,1.02,1.2s-.35,1.2-1.02,1.2h-1.67v3.81c.4-.15.8-.32,1.17-.47.17-.07.32-.1.5-.1.67,0,1.15.62,1.15,1.27,0,.4-.2.8-.67,1.02-.67.32-1.39.65-2.14.95v6.05c0,1.79-.9,2.64-2.89,2.64-.52,0-1.05-.05-1.44-.12-.72-.1-1.05-.67-1.05-1.22,0-.72.52-1.44,1.44-1.3.22.05.5.07.75.07.4,0,.55-.12.55-.55v-4.66c-.62.22-1.25.4-1.84.55-.12.02-.25.05-.35.05-.77,0-1.22-.67-1.22-1.34,0-.52.27-1.05.95-1.22.77-.2,1.62-.45,2.47-.7v-4.73h-2.14c-.65,0-1-.6-1-1.2s.35-1.2,1-1.2h2.14v-4.13c0-.72.67-1.07,1.32-1.07s1.32.35,1.32,1.07v4.13h1.67ZM134.88,35.34c1.99-.57,4.13-1.4,5.7-2.24.25-.15.5-.2.75-.2.75,0,1.32.65,1.32,1.32,0,.42-.22.85-.8,1.12-2.07.97-4.56,1.84-6.97,2.42v.72c0,.87.35,1.15,2.86,1.15,3.61,0,4.11-.32,4.36-1.89.12-.72.72-1.07,1.34-1.07.72,0,1.47.5,1.34,1.37-.42,3.19-1.69,3.96-7.05,3.96-4.83,0-5.5-.7-5.5-2.91v-6.33c0-.72.67-1.1,1.34-1.1s1.3.35,1.3,1.07v2.62ZM135.83,53.87c-2.29,0-3.14-.85-3.14-2.59v-5.23c0-1.74.85-2.59,3.14-2.59h4.43c2.29,0,3.14.85,3.14,2.59v5.23c-.05,2.12-1.25,2.54-3.14,2.59h-4.43ZM140.76,46.38c0-.5-.17-.67-.85-.67h-3.74c-.67,0-.85.17-.85.67v1.15h5.43v-1.15ZM139.91,51.63c.67,0,.85-.17.85-.67v-1.29h-5.43v1.29c0,.6.32.67.85.67h3.74Z"/>
      <path class="cls-2" d="M161.63,48.39c0-.6.67-.9,1.32-.9s1.32.3,1.32.9v.32h5.08c.57,0,.87.5.87,1s-.3,1-.87,1h-5.08v1.74c0,1.62-.87,2.42-2.76,2.42-.4,0-.9,0-1.47-.1-.65-.1-.92-.6-.92-1.1,0-.62.45-1.22,1.22-1.1.22.02.55.07.82.07.4,0,.47-.07.47-.45v-1.49h-6.6l.05.02c.42.25,1.02.67,1.47,1.07.32.27.47.6.47.92,0,.62-.57,1.17-1.25,1.17-.27,0-.55-.07-.82-.3-.52-.42-1.02-.85-1.47-1.17-.32-.25-.47-.55-.47-.85,0-.32.2-.67.5-.87h-5.63c-.55,0-.85-.5-.85-1s.3-1,.85-1h13.75v-.32ZM153.21,43.61c1.52,1.07,3.76,1.64,8.22,1.64,2.86,0,5.18-.1,7.42-.27.75-.05,1.15.52,1.15,1.07s-.32,1.02-.97,1.07c-2.14.15-4.51.22-7.5.22-4.86,0-7.55-.6-9.36-2.02-1,.95-1.92,1.69-2.86,2.29-.22.15-.47.22-.7.22-.67,0-1.2-.57-1.2-1.2,0-.35.17-.72.65-1.02.85-.52,1.74-1.22,2.66-1.99v-2.27c0-.4-.15-.52-.67-.52h-1.32c-.67,0-1-.55-1-1.1s.32-1.1,1-1.1h1.89c1.99,0,2.59.67,2.59,2.27v2.69ZM152.44,34.32c.3.32.42.67.42.97,0,.67-.57,1.22-1.25,1.22-.35,0-.7-.12-1-.45-.55-.55-1.05-1.05-1.59-1.49-.32-.27-.45-.57-.45-.87,0-.62.57-1.17,1.3-1.17.27,0,.57.1.87.3.65.47,1.22,1,1.69,1.49ZM165.07,36.17c2.04,0,2.66.7,2.66,2.02v4.13c-.02,1.74-1.15,2.02-2.66,2.04h-6.92c-2.04,0-2.66-.67-2.66-1.99v-4.18c0-1.32.62-2.02,2.66-2.02h1.34c.1-.27.2-.55.27-.82h-5.01c-.57,0-.85-.47-.85-.92,0-.47.27-.92.85-.92h3.26c-.17-.25-.37-.47-.57-.72-.15-.17-.2-.37-.2-.55,0-.52.6-.97,1.2-.97.3,0,.6.1.82.35.42.45.62.7.9,1.05.15.2.2.4.2.57,0,.1-.02.2-.05.27h2.37c.35-.55.65-1.1.92-1.64.22-.42.62-.62,1.05-.62.62,0,1.3.45,1.3,1.05,0,.15-.05.3-.15.47-.15.27-.3.52-.45.75h3.49c.57,0,.87.45.87.92,0,.45-.3.92-.87.92h-6.58c-.1.27-.2.55-.3.82h3.11ZM165.34,38.13c0-.32-.15-.47-.6-.47h-6.28c-.45,0-.6.15-.6.47v.35h7.47v-.35ZM157.87,40.62h7.47v-.85h-7.47v.85ZM164.72,42.82c.45,0,.62-.15.62-.47v-.42h-7.47v.42c0,.37.3.47.62.47h6.23Z"/>
    </g>
  </g>
</svg>
